<?xml version="1.0" standalone="no"?><!DOCTYPE svg PUBLIC "-//W3C//DTD SVG 1.1//EN" "http://www.w3.org/Graphics/SVG/1.1/DTD/svg11.dtd"><svg t="1545903422638" class="icon" style="" viewBox="0 0 1024 1024" version="1.1" xmlns="http://www.w3.org/2000/svg" p-id="5305" xmlns:xlink="http://www.w3.org/1999/xlink" width="200" height="200"><defs><style type="text/css"></style></defs><path d="M830.955844 287.531646c0-52.881394-43.010583-95.893001-95.890954-95.893001L159.702794 191.638645c-52.875255 0-95.891977 43.011606-95.891977 95.893001l0 575.358003c0 52.876278 43.016723 95.893001 95.891977 95.893001L735.06489 958.782649c52.880371 0 95.890954-43.016723 95.890954-95.893001L830.955844 287.531646zM159.702794 255.56356 735.06489 255.56356c17.605983 0 31.967062 14.361079 31.967062 31.968086l0 159.816892L127.740848 447.348538 127.740848 287.531646C127.740848 269.924639 142.095787 255.56356 159.702794 255.56356zM735.06489 894.853641 159.702794 894.853641c-17.607006 0-31.961946-14.361079-31.961946-31.962969L127.740848 511.278569l639.291105 0 0 351.612103C767.031952 880.492562 752.670873 894.853641 735.06489 894.853641z" p-id="5306"></path><path d="M703.573665 319.494615l-63.931055 0 0 63.930031 63.931055 0L703.573665 319.494615z" p-id="5307"></path><path d="M223.632825 383.424646l287.711747 0c17.633612 0 31.928177-14.362102 31.928177-31.968086 0-17.668405-14.294564-31.960922-31.928177-31.960922L223.632825 319.495638c-17.634636 0-31.934317 14.293541-31.934317 31.960922C191.698508 369.062544 205.998189 383.424646 223.632825 383.424646z" p-id="5308"></path><path d="M862.92393 63.778582 287.56388 63.778582c-52.881394 0-95.864348 43.016723-95.864348 95.891977l63.896262 0c0-17.607006 14.361079-31.961946 31.968086-31.961946l575.361073 0c17.634636 0 31.962969 14.354939 31.962969 31.961946l0 575.355957c0 17.605983-14.328333 31.972179-31.962969 31.972179l0 63.923892c52.876278 0 95.893001-43.010583 95.893001-95.89607L958.817953 159.670559C958.81693 106.795305 915.800207 63.778582 862.92393 63.778582z" p-id="5309"></path></svg>