<?xml version="1.0" standalone="no"?><!DOCTYPE svg PUBLIC "-//W3C//DTD SVG 1.1//EN" "http://www.w3.org/Graphics/SVG/1.1/DTD/svg11.dtd"><svg t="1545902904283" class="icon" style="" viewBox="0 0 1024 1024" version="1.1" xmlns="http://www.w3.org/2000/svg" p-id="2929" xmlns:xlink="http://www.w3.org/1999/xlink" width="200" height="200"><defs><style type="text/css"></style></defs><path d="M251.2 222.4h24c19.2 0 33.6-14.4 33.6-32V57.6c0-19.2-14.4-33.6-33.6-33.6h-24c-19.2 0-33.6 14.4-33.6 33.6v131.2c-1.6 19.2 14.4 33.6 33.6 33.6zM753.6 222.4h24c19.2 0 33.6-14.4 33.6-32V57.6c0-19.2-14.4-33.6-33.6-33.6h-24c-19.2 0-33.6 14.4-33.6 33.6v131.2c-1.6 19.2 14.4 33.6 33.6 33.6z" fill="#2C2C2C" p-id="2930"></path><path d="M928 134.4h-68.8v56c0 41.6-33.6 76.8-80 76.8h-24c-43.2 0-80-33.6-80-76.8V134.4h-320v56c0 41.6-33.6 76.8-80 76.8h-24c-43.2 0-80-33.6-80-76.8V134.4H104c-38.4 0-68.8 28.8-68.8 67.2v731.2c0 38.4 30.4 67.2 68.8 67.2h820.8c38.4 0 68.8-28.8 70.4-67.2V201.6c1.6-38.4-28.8-67.2-67.2-67.2zM104 932.8V355.2h820.8s0 577.6 1.6 577.6H104z" fill="#2C2C2C" p-id="2931"></path><path d="M728 662.4H537.6V800h56v-20.8h136v-116.8zM672 740.8h-76.8v-35.2H672v35.2z" fill="#2C2C2C" p-id="2932"></path><path d="M440 446.4v190.4c1.6 83.2-12.8 144-41.6 184 17.6 12.8 33.6 27.2 51.2 41.6 33.6-49.6 51.2-123.2 51.2-219.2V496h100.8v28.8h-76.8v41.6h76.8v28.8h-88l-1.6 40h236.8v-41.6h-88v-28.8h76.8v-41.6h-76.8v-28.8h99.2v270.4c0 8 0 16-4.8 22.4-1.6 6.4-14.4 11.2-36.8 11.2-14.4 0-32 0-44.8-1.6 4.8 19.2 8 38.4 12.8 59.2h70.4c20.8-1.6 38.4-8 49.6-22.4 11.2-12.8 17.6-35.2 17.6-62.4V446.4h-384zM321.6 580.8l-48 33.6v-32c0-4.8-4.8-6.4-8-4.8l-96 68.8c-1.6 1.6-1.6 8 0 8l96 68.8c4.8 1.6 8 0 8-4.8v-28.8l48 33.6c4.8 1.6 8 0 8-4.8v-136c0-1.6-4.8-3.2-8-1.6z" fill="#2C2C2C" p-id="2933"></path></svg>