<?xml version="1.0" standalone="no"?><!DOCTYPE svg PUBLIC "-//W3C//DTD SVG 1.1//EN" "http://www.w3.org/Graphics/SVG/1.1/DTD/svg11.dtd"><svg t="1545979262695" class="icon" style="" viewBox="0 0 1024 1024" version="1.1" xmlns="http://www.w3.org/2000/svg" p-id="37657" xmlns:xlink="http://www.w3.org/1999/xlink" width="200" height="200"><defs><style type="text/css"></style></defs><path d="M64 362.944l0 203.584 265.088 0L329.088 459.84c0-11.136 6.4-17.92 14.272-20.352C348.672 436.672 355.328 436.544 362.176 440.96c92.736 59.84 225.6 148.608 225.6 148.608 33.472 22.208 34.048 59.52 0 82.176 0 0-132.992 89.152-225.6 148.992-13.504 8.704-32.32-2.88-32.32-17.6l-0.768-110.144L64 692.992l0 116.736c0 41.344 34.048 74.88 74.88 74.88l746.304 0c41.344 0 74.816-33.664 74.816-74.176L960 363.84c0-0.256 0-0.576 0-0.896L64 362.944z" p-id="37658"></path><path d="M64 213.76l0 74.688 649.856 0-32.896-80.256c-15.552-38.016-61.568-68.8-102.72-68.8l-439.68 0C97.408 139.392 64 172.8 64 213.76z" p-id="37659"></path></svg>